classDiagram
    Iphone --|> ReprodutorMusical
    Iphone --|> AparelhoTelefonico
    Iphone --|> NavegadorInternet

    class ReprodutorMusical{
      +tocar()
      +pausar()
      +selecionarMusica(String musica)
    }
    class AparelhoTelefonico{
      +ligar()
      +atender()
      +iniciarCorreioVoz()
    }
    class NavegadorInternet{
      +exibirPagina(String url)
      +adicionarNovaAba()
      +atualizarPagina()
    }